<svg width="60" height="60" viewBox="0 0 60 60" fill="none" xmlns="http://www.w3.org/2000/svg">
<rect width="60" height="60" rx="4" fill="#8873EF"/>
<path d="M16.5312 15.7812H29.5312C35.5938 15.7812 40.0417 16.2083 42.875 17.0625C46.1042 18.0625 48.5938 19.3438 50.3438 20.9062C52.1146 22.4688 53.5 24.0833 54.5 25.75C56.5417 29.1458 57.5625 33 57.5625 37.3125C57.5625 44.1042 55.125 49.6042 50.25 53.8125C46.7917 56.8333 42.7188 58.6979 38.0312 59.4062C35.4271 59.8021 31.7812 60 27.0938 60H16.5312V15.7812ZM32.4688 57.4062C32.8021 57.4271 33.1042 57.4375 33.375 57.4375H34.0938C39.7396 57.4375 44.5625 55.6771 48.5625 52.1562C52.7917 48.4479 54.9062 43.5208 54.9062 37.375C54.9062 33.5 53.9792 30.0104 52.125 26.9062C49.4375 22.3854 45.1875 19.6458 39.375 18.6875C37.4792 18.375 35.1771 18.1979 32.4688 18.1562V57.4062Z" fill="white"/>
</svg>
